<svg style="position: absolute; width: 0; height: 0; overflow: hidden;" version="1.1" xmlns="http://www.w3.org/2000/svg" xmlns:xlink="http://www.w3.org/1999/xlink">
<defs>
<symbol id="asterisk" viewBox="0 0 8 17">
<title>asterisk</title>
<path d="M1.328 10.168L2.768 8.76L0.896 8.104L1.28 7.256L2.976 8.104L2.832 6.056H3.792L3.648 8.104L5.344 7.24L5.728 8.104L3.872 8.744L5.312 10.168L4.592 10.792L3.328 9.128L2.048 10.792L1.328 10.168Z" fill="#0C7D69"/>
</symbol>
<symbol id="success" viewBox="0 0 20 21">
<title>success</title>
<path fill="#fff" d="M14.28 7.72a.748.748 0 0 1 0 1.06l-5.25 5.25a.748.748 0 0 1-1.06 0l-2.25-2.25a.75.75 0 1 1 1.06-1.06l1.72 1.72 4.72-4.72a.75.75 0 0 1 1.06 0Zm5.47 2.78A9.75 9.75 0 1 1 10 .75a9.76 9.76 0 0 1 9.75 9.75Zm-1.5 0A8.25 8.25 0 1 0 10 18.75a8.26 8.26 0 0 0 8.25-8.25Z"/>
</symbol>
</defs>
</svg>
